<?xml version="1.0" encoding="UTF-8"?>
<svg version="1.1" xmlns="http://www.w3.org/2000/svg" width="512" height="512">
<path d="M0 0 C3.54296197 2.80831838 6.80170054 5.80717708 10 9 C10.6496875 9.63808594 11.299375 10.27617188 11.96875 10.93359375 C23.2685975 22.85295044 27.44323455 39.29982678 27.27734375 55.3359375 C25.95396694 72.81942265 18.37709611 88.88460001 5.140625 100.51171875 C-6.91064232 109.95604093 -19.78042713 113.51757304 -34.37890625 117.08203125 C-36.24190843 117.54484848 -38.104693 118.00854246 -39.9672699 118.47306824 C-43.8461747 119.43824181 -47.72666672 120.3966198 -51.60864258 121.34936523 C-56.59100585 122.57219443 -61.57046139 123.80638565 -66.54895115 125.04488087 C-71.30390052 126.22744389 -76.06003443 127.4052044 -80.81640625 128.58203125 C-81.72453127 128.80698587 -82.63265629 129.0319405 -83.56830025 129.26371193 C-86.1237533 129.8956376 -88.68000184 130.52422361 -91.23657227 131.15161133 C-91.99756226 131.34012161 -92.75855225 131.5286319 -93.54260254 131.72285461 C-98.76992035 133 -98.76992035 133 -101 133 C-100.99723462 133.84500281 -100.99446924 134.69000563 -100.99162006 135.56061459 C-100.92516598 156.1875482 -100.87562532 176.81446319 -100.84456348 197.44148159 C-100.82914028 207.41683756 -100.80813843 217.39212176 -100.77368164 227.36743164 C-100.74363929 236.06895231 -100.72439202 244.77042097 -100.71773452 253.47199208 C-100.71384722 258.07301692 -100.70480806 262.67389306 -100.68280983 267.27486992 C-100.66220937 271.61934391 -100.65621294 275.96361016 -100.66067696 280.30812836 C-100.65986215 281.88936816 -100.65403845 283.47061606 -100.64238358 285.05181313 C-100.45566146 311.72805636 -107.70173354 334.90736601 -126.34765625 354.47265625 C-145.52394187 372.7451994 -167.66993627 378.55871248 -193.40234375 378.28125 C-205.48965854 377.93742082 -216.30222126 374.6504588 -227 369 C-227.95132813 368.52046875 -228.90265625 368.0409375 -229.8828125 367.546875 C-250.06165068 356.69350512 -263.32856162 338.20720071 -270.05859375 316.6015625 C-276.01359352 293.97826194 -273.24268363 270.57661419 -262.37109375 249.90234375 C-258.33675496 243.2470888 -253.36055619 237.61168135 -248 232 C-247.45988281 231.38511719 -246.91976562 230.77023437 -246.36328125 230.13671875 C-234.10170078 216.70148574 -213.71013762 207.98611951 -195.73632812 206.85791016 C-179.89039521 206.25713094 -166.34709763 207.75194362 -151.73046875 214.09130859 C-151.08219116 214.37088913 -150.43391357 214.65046967 -149.76599121 214.93852234 C-148.17668334 215.62419046 -146.58825278 216.31189145 -145 217 C-145.00276538 216.1986154 -145.00553076 215.3972308 -145.00837994 214.57156181 C-145.07479288 195.02221155 -145.12435483 175.47288397 -145.15543652 155.92344475 C-145.17086903 146.46926686 -145.19188896 137.01516453 -145.22631836 127.56103516 C-145.25633191 119.31550484 -145.27560125 111.07002928 -145.28226548 102.82444584 C-145.28615759 98.46328709 -145.29522816 94.10228491 -145.31719017 89.74117661 C-145.33774479 85.62570536 -145.34379602 81.51045331 -145.33932304 77.39493561 C-145.34013985 75.89467548 -145.34599149 74.39440705 -145.35761642 72.89419174 C-145.51497894 51.51472329 -140.22347878 34.47989907 -125.7578125 18.52734375 C-112.71658335 5.72761885 -95.23340353 1.63539958 -78.02075195 -2.58496094 C-74.32848729 -3.49605502 -70.65023778 -4.45301016 -66.97070312 -5.4140625 C-43.79341846 -11.29633857 -20.86801633 -14.17390868 0 0 Z " fill="#000000" transform="translate(443,70)"/>
</svg>
